<svg width="40" height="41" viewBox="0 0 40 41" fill="none" xmlns="http://www.w3.org/2000/svg">
    <path d="M20 14.903a5.218 5.218 0 0 0-5.207 5.207A5.218 5.218 0 0 0 20 25.317a5.218 5.218 0 0 0 5.207-5.207A5.218 5.218 0 0 0 20 14.903zm15.617 5.207c0-2.156.02-4.293-.101-6.445-.121-2.5-.692-4.72-2.52-6.547-1.832-1.832-4.047-2.399-6.547-2.52-2.156-.121-4.293-.101-6.445-.101-2.156 0-4.293-.02-6.445.101-2.5.121-4.72.691-6.547 2.52-1.832 1.832-2.399 4.046-2.52 6.546-.12 2.157-.101 4.293-.101 6.446 0 2.152-.02 4.293.101 6.445.121 2.5.692 4.719 2.52 6.547 1.832 1.832 4.047 2.398 6.547 2.52 2.156.12 4.293.101 6.445.101 2.156 0 4.293.02 6.445-.102 2.5-.12 4.719-.69 6.547-2.519 1.832-1.832 2.398-4.047 2.52-6.547.125-2.152.101-4.289.101-6.445zM20 28.122a8 8 0 0 1-8.012-8.012A8 8 0 0 1 20 12.098a8 8 0 0 1 8.012 8.012A8 8 0 0 1 20 28.122zm8.34-14.48a1.869 1.869 0 0 1-1.871-1.872c0-1.035.836-1.871 1.87-1.871a1.869 1.869 0 0 1 1.73 2.587 1.869 1.869 0 0 1-1.73 1.155z" fill="#FCFCFC"/>
</svg>
