<svg width="36" height="37" viewBox="0 0 36 37" fill="none" xmlns="http://www.w3.org/2000/svg">
    <path fill-rule="evenodd" clip-rule="evenodd" d="M19.176.18c.995.065 1.967.21 2.911.43-1.975-.063-4.296.29-6.946 1.307.69-.715 2.557-1.359 4.035-1.736zM12.95.86c-.609.179-1.205.387-1.786.626-.603.955-.86 1.928-.848 2.138 0 0 1.152-1.596 2.634-2.763zM8.707 32.629c-3.987-2.464-5.897-7.711-6.91-12.462-.087 2.922 1.008 6.84 2.603 9.794A17.956 17.956 0 0 1 0 18.163C0 10.895 4.302 4.635 10.493 1.786c-.075.092-2.126 2.624-2.302 2.917l-.002.004c-.18.3-.504.84-.385 1.61.12.776.01 1.069-.427 1.367-.088.06-.174.112-.255.16-.319.19-.559.334-.559.794 0 .278.018.73.035 1.146.019.446.035.848.025.941-1.291.895-3.019 2.723-3.237 3.498-.03.43-.015.916-.006 1.226.003.105.006.19.006.245 0 .061-.01.166-.023.292-.033.322-.079.78.005.98.117.278.445.775.524.855.08.08.12.168.04.342-.08.175-.129.94.477 1.477.177.157.517.443.922.783.975.819 2.324 1.953 2.682 2.367.464.538.369 1.294.288 1.93l-.02.167c.588-.964.737-1.449.774-1.724.462.603 1.44 1.764 2.65 2.091-.595-.864-1.15-1.759-1.18-2.116-.03-.358.079-.517.565-.17.132.095.308.319.529.598.597.757 1.514 1.92 2.718 2.006-1.877-1.192-2.621-2.554-.457-4.243-1.32.785-2.353 1.262-4.666.457-2.313-.805-3.187-2.216-3.137-3.359.665.189 1.477.41 1.956.318.362-.07.842-.424 1.353-.8.651-.479 1.35-.993 1.913-.999.334-.003.654-.01.938-.016h.001c.568-.011.994-.02 1.106.006-.725-.338-1.916-.596-3.127.13-.416.249-.721.471-.973.655-.481.352-.77.562-1.271.547-1.003-.03-2.145-1.173-2.373-1.48.025-.288.12-.402.246-.556.024-.029.049-.058.074-.09-.022-.366.019-.825.171-.947.187-.15.68-.246.254.797 1.33-.199 1.678-1.222 1.678-1.56 0-.338-.517-1.024-1.093-.974 0 0 .397.457.407.706l.003.05c.012.25.03.612-.38.278-.437-.358-1.25-.269-1.529-.15-.278.12-.595.378-.595.378s-.566-.209-.795-.338c.656-1.172 2.423-2.951 3.803-3.905-.526.06-.576.08-.576.08s.07-1.68.199-1.969c.06-.133.339-.344.65-.58.365-.275.773-.584.928-.84.098-.164.18-.375.272-.617.178-.466.4-1.044.87-1.6.715-.844 1.519-1.49 2.135-1.729-.993.994-2.254 2.554-2.344 4.035.884-1.431 1.232-1.809 1.52-2.057.04-.036.1-.08.173-.136.44-.33 1.375-1.034 1.792-2.329 0 0 .318-.11.725.01l.18.056c.39.126.893.287 1.389.073.575-.248 1.846-.745 2.263-.715.417.03.616.198.646.308 0 0-2.403.377-2.403.974 0 .596.407 1.321 1.082 1.51 0 .477-.347 1.054-1.25 1.054-.904 0-1.689-.845-1.689-1.412 0 1.074.537 1.899 1.738 2.048.715.088 1.572-.957 2.189-1.71.23-.28.428-.521.57-.646.527-.457 1.39-.914 2.076-.496.685.417.466 1.798-.487 2.434 1.152.288 2.94.795 3.028 1.829.09 1.033-2.918 2.544-4.507 3.001 1.44.06 2.631-.07 2.909-.229-.774.706-1.747 1.054-1.747 1.054s2.899-.09 3.822-.865c-.794 1.362-2.85 2.662-4.06 2.662-.822 0-1.504-.332-2.108-.625-.44-.213-.839-.407-1.219-.437a3.614 3.614 0 0 0-1.747.289s.923.05 1.787.536c.864.487 2.264 1.173 2.969 1.173.324 0 .758-.156 1.221-.322.543-.195 1.125-.404 1.618-.394.914.02 2.83 1.54 3.018 3.37-1.479-1.054-2.392-1.66-3.941-1.58l.312.427c1.014 1.39 1.566 2.147 1.386 2.862-.2.785-1.32 1.232-3.366.914-2.088-.325-2.621-.318-3.495.517 1.33.08 2.84.248 3.753 1.033.913.785.943 1.223.943 1.53 0 .175-.006.6-.012.967-.004.28-.008.527-.008.604 0 .179 0 1.172-1.995 1.749l-.286.081c-2.02.572-5.155 1.458-5.155 6.359 1.201-2.783 2.266-4.326 4.392-5.039.711-.238 2.064-.676 2.498-.765.775-.159 1.847-1.163 2.383-2.147-.377 2.187-1.42 6.649-6.394 6.669.407.397 1.112.566 2.214.248l.161-.045c1.23-.34 4.255-1.178 5.677-7.12 0 0 .522 3.768-1.757 6.728-2.403 3.12-8.161 5.028-14.079 1.371zM21.317 2.38c5.416-.087 9.603 3.545 11.984 6.285a18.104 18.104 0 0 0-4.117-4.618c-3.206-1.817-6.518-2.518-7.867-1.667zM36 17.868a17.955 17.955 0 0 0-1.587-7.119c-2.077-1.652-6.547-4.959-10.476-5.413C31.027 7.9 35.11 13.86 36 17.867zm-.029 1.4c-5.19-9.138-9.71-10.052-9.71-10.052 7.195 5.638 8.14 12.378 7.83 17.04a17.925 17.925 0 0 0 1.88-6.989zm-8.738-5.323c2.89 1.87 6.34 5.652 6.456 13.061a18.082 18.082 0 0 1-2.777 3.714c.893-4.04 1.85-10.99-3.679-16.774zm3.245 17.206a18.003 18.003 0 0 1-6.152 3.889c2.879-2.376 6.045-8.237 4.06-16.662 2.248 2.25 2.26 9.194 2.093 12.773zM26.46 19.526c.358 12.204-4.587 15.96-10.107 16.201a17.03 17.03 0 0 1-2.864-.118c1.443.373 2.956.572 4.516.572 1.855 0 3.644-.282 5.328-.803 6.96-7.644 3.127-15.852 3.127-15.852z" fill="#D3B62A"/>
</svg>
