<svg width="350" height="146" viewBox="0 0 350 146" fill="none" xmlns="http://www.w3.org/2000/svg">
    <g clip-path="url(#a)" fill="#D3B62A">
        <path fill-rule="evenodd" clip-rule="evenodd" d="M74.097.47c3.843.248 7.598.811 11.247 1.658-7.631-.242-16.6 1.123-26.84 5.05C61.168 4.415 68.383 1.93 74.097.47zM50.04 3.1a68.994 68.994 0 0 0-6.904 2.415c-2.33 3.688-3.324 7.45-3.276 8.259 0 0 4.45-6.167 10.18-10.675zM33.645 125.846c-15.409-9.524-22.787-29.798-26.7-48.153-.338 11.292 3.892 26.429 10.055 37.843C6.418 103.321 0 87.393 0 69.955 0 41.869 16.62 17.684 40.545 6.672c-.289.357-8.216 10.14-8.894 11.272l-.01.017c-.693 1.156-1.945 3.243-1.486 6.223.46 2.995.038 4.128-1.65 5.28-.341.233-.673.43-.985.618-1.233.736-2.16 1.291-2.16 3.068 0 1.073.07 2.823.136 4.426.07 1.725.133 3.28.094 3.638-4.988 3.456-11.663 10.522-12.506 13.517-.115 1.662-.059 3.539-.023 4.735.013.406.023.734.023.948 0 .237-.041.643-.09 1.128-.126 1.245-.304 3.013.021 3.787.452 1.075 1.718 2.995 2.025 3.302.307.308.46.651.154 1.324-.308.673-.5 3.63 1.84 5.704.687.608 2.001 1.712 3.565 3.026 3.765 3.165 8.979 7.545 10.361 9.146 1.796 2.08 1.427 5 1.116 7.455-.028.22-.055.436-.08.648 2.273-3.725 2.848-5.597 2.992-6.663 1.784 2.333 5.563 6.816 10.243 8.083-2.302-3.34-4.45-6.796-4.565-8.179-.115-1.382.307-1.997 2.186-.653.508.363 1.19 1.229 2.043 2.309 2.307 2.923 5.852 7.416 10.502 7.752-7.25-4.608-10.128-9.869-1.765-16.396-5.101 3.033-9.091 4.876-18.03 1.766-8.938-3.11-12.314-8.563-12.122-12.98 2.57.73 5.71 1.586 7.557 1.23 1.4-.27 3.258-1.638 5.23-3.09 2.517-1.85 5.22-3.84 7.391-3.86 1.293-.014 2.53-.04 3.629-.062h.001c2.195-.045 3.838-.08 4.273.023-2.8-1.306-7.404-2.304-12.084.5-1.608.962-2.786 1.822-3.759 2.533-1.86 1.358-2.972 2.17-4.911 2.112-3.875-.115-8.286-4.531-9.169-5.721.097-1.11.46-1.55.952-2.145.091-.11.187-.225.286-.351-.087-1.412.07-3.185.661-3.658.72-.576 2.628-.95.978 3.082 5.14-.768 6.484-4.724 6.484-6.029 0-1.306-1.995-3.955-4.22-3.763 0 0 1.534 1.766 1.572 2.726l.01.192c.046.971.113 2.37-1.467 1.075-1.688-1.382-4.833-1.036-5.908-.576-1.074.461-2.302 1.46-2.302 1.46s-2.186-.807-3.069-1.306c2.533-4.531 9.36-11.405 14.693-15.09-2.033.23-2.225.306-2.225.306s.268-6.49.768-7.603c.23-.514 1.31-1.33 2.516-2.243 1.407-1.063 2.984-2.256 3.583-3.248.38-.63.693-1.447 1.05-2.381.689-1.8 1.543-4.033 3.362-6.182 2.762-3.264 5.869-5.76 8.248-6.682-3.837 3.84-8.709 9.869-9.054 15.59 3.414-5.529 4.757-6.988 5.87-7.948.158-.137.388-.31.672-.523 1.7-1.28 5.312-3.997 6.923-9 0 0 1.228-.423 2.8.038.22.064.454.14.699.218 1.507.484 3.449 1.107 5.363.281 2.224-.96 7.135-2.88 8.746-2.765 1.612.115 2.38.768 2.494 1.19 0 0-9.284 1.46-9.284 3.764s1.573 5.107 4.181 5.837c0 1.843-1.342 4.07-4.833 4.07-3.49 0-6.521-3.264-6.521-5.453 0 4.148 2.072 7.334 6.713 7.91 2.763.343 6.076-3.698 8.46-6.604.89-1.087 1.651-2.015 2.205-2.496 2.033-1.766 5.37-3.533 8.017-1.92 2.647 1.612 1.803 6.95-1.88 9.408 4.45 1.114 11.356 3.072 11.701 7.066.345 3.993-11.278 9.83-17.416 11.596 5.562.23 10.166-.269 11.24-.883-2.992 2.726-6.752 4.07-6.752 4.07s11.202-.345 14.77-3.34c-3.07 5.26-11.01 10.283-15.69 10.283-3.173 0-5.81-1.28-8.143-2.413-1.702-.826-3.241-1.573-4.709-1.688-3.913-.307-6.752 1.113-6.752 1.113s3.568.193 6.905 2.074c3.338 1.881 8.747 4.531 11.471 4.531 1.254 0 2.93-.602 4.719-1.244 2.097-.754 4.348-1.562 6.252-1.52 3.53.076 10.933 5.951 11.662 13.017-5.715-4.07-9.245-6.413-15.23-6.106.419.577.82 1.127 1.205 1.654 3.922 5.372 6.054 8.294 5.355 11.057-.767 3.033-5.102 4.761-13.004 3.533-8.066-1.255-10.128-1.23-13.504 1.996 5.14.308 10.972.96 14.501 3.994 3.53 3.034 3.644 4.723 3.644 5.913 0 .676-.024 2.316-.046 3.735v.002c-.016 1.08-.03 2.032-.03 2.33 0 .692 0 4.532-7.711 6.759l-1.1.313-.003.001c-7.81 2.209-19.92 5.634-19.92 24.569 4.642-10.752 8.756-16.715 16.97-19.469 2.748-.921 7.976-2.612 9.654-2.957 2.992-.614 7.135-4.492 9.207-8.294-1.458 8.448-5.486 25.69-24.705 25.767 1.572 1.535 4.296 2.188 8.554.96l.225-.065.397-.11c4.749-1.315 16.44-4.552 21.935-27.511 0 0 2.018 14.557-6.79 25.996-9.283 12.057-31.534 19.43-54.398 5.299zM82.366 8.966c20.931-.336 37.107 13.695 46.308 24.285a69.952 69.952 0 0 0-15.906-17.846c-12.391-7.02-25.187-9.729-30.402-6.44zm56.737 59.846c-.157-9.794-2.332-19.093-6.131-27.505-8.025-6.385-25.297-19.161-40.479-20.917 27.395 9.911 43.169 32.935 46.61 48.422zm-.113 5.409c-20.056-35.306-37.519-38.84-37.519-38.84 27.802 21.786 31.45 47.83 30.252 65.841a69.254 69.254 0 0 0 7.267-27.001zm-33.762-20.564c11.165 7.224 24.493 21.837 24.946 50.467a69.854 69.854 0 0 1-10.731 14.349c3.449-15.608 7.149-42.465-14.215-64.816zm12.54 66.483a69.57 69.57 0 0 1-23.775 15.025c11.125-9.179 23.361-31.827 15.687-64.381 8.688 8.697 8.734 35.524 8.088 49.356zm-15.531-44.92c1.381 47.155-17.724 61.67-39.053 62.6a65.817 65.817 0 0 1-11.065-.457 69.588 69.588 0 0 0 17.447 2.21 69.487 69.487 0 0 0 20.588-3.103c26.889-29.534 12.083-61.25 12.083-61.25z"/>
        <path d="M171.043 1.598v34.77h4.383V7.442h.097l10.86 28.926h3.944l10.86-28.926h.097v28.926h4.383V1.598h-6.331l-11.005 29.218-10.957-29.218h-6.331zM210.639 1.598v34.77h4.626V1.598h-4.626zM220.075 1.598v34.77h4.383V8.464h.098l18.164 27.904h5.064V1.598h-4.383v28.196h-.097l-18.31-28.196h-4.919zM256.972 32.472V5.494h7.792c2.143 0 3.944.308 5.405.925 1.461.585 2.646 1.461 3.555 2.63.942 1.136 1.607 2.532 1.997 4.188.422 1.623.633 3.473.633 5.551 0 2.143-.228 3.977-.682 5.503-.422 1.493-.974 2.743-1.656 3.75-.681 1.006-1.461 1.802-2.337 2.386a11.656 11.656 0 0 1-2.581 1.363c-.877.293-1.705.487-2.484.585-.779.065-1.428.097-1.948.097h-7.694zm-4.626-30.874v34.77h11.931c2.889 0 5.389-.406 7.499-1.218 2.11-.811 3.847-1.98 5.211-3.506 1.363-1.558 2.37-3.457 3.019-5.697.649-2.273.974-4.87.974-7.792 0-5.584-1.445-9.74-4.334-12.466-2.889-2.727-7.012-4.09-12.369-4.09h-11.931zM176.059 58.055 178.396 47h8.571c.714 0 1.461.049 2.24.146a7.075 7.075 0 0 1 2.24.536 3.89 3.89 0 0 1 1.656 1.315c.454.584.682 1.396.682 2.435 0 4.415-2.468 6.623-7.402 6.623h-10.324zm-1.315-14.95-7.256 34.77h17.19c1.721 0 3.328-.244 4.821-.731 1.494-.52 2.792-1.234 3.896-2.143a9.645 9.645 0 0 0 2.63-3.409c.649-1.33.974-2.824.974-4.48 0-1.85-.471-3.392-1.412-4.626-.942-1.266-2.208-2.126-3.799-2.58v-.098c1.039-.163 1.964-.504 2.776-1.023a8.359 8.359 0 0 0 2.045-1.948 8.545 8.545 0 0 0 1.315-2.532c.325-.942.487-1.9.487-2.873 0-2.63-.763-4.675-2.289-6.136-1.526-1.461-3.993-2.191-7.402-2.191h-13.976zm-1.996 30.873 2.532-12.028h9.934c.942 0 1.834.065 2.678.195.877.13 1.64.373 2.289.73a3.903 3.903 0 0 1 1.607 1.559c.39.682.585 1.574.585 2.678 0 1.591-.341 2.84-1.023 3.75-.649.909-1.429 1.607-2.338 2.094a8.9 8.9 0 0 1-2.775.876c-.942.098-1.705.147-2.289.147h-11.2zM204.039 63.46c0-2.11.292-4.188.876-6.233.617-2.078 1.526-3.928 2.727-5.552a14.153 14.153 0 0 1 4.481-3.944c1.818-1.04 3.944-1.559 6.379-1.559 1.623 0 3.035.309 4.237.926a8.834 8.834 0 0 1 3.116 2.435c.844 1.006 1.477 2.207 1.899 3.603.422 1.396.633 2.906.633 4.529 0 2.078-.308 4.14-.925 6.184-.584 2.046-1.477 3.88-2.678 5.503a13.808 13.808 0 0 1-4.383 3.945c-1.753 1.006-3.782 1.51-6.087 1.51-1.753 0-3.279-.277-4.578-.829-1.266-.551-2.321-1.314-3.165-2.288-.844-1.007-1.477-2.208-1.899-3.604-.422-1.396-.633-2.938-.633-4.626zm-4.626 0c0 4.837 1.282 8.587 3.847 11.249 2.597 2.63 6.282 3.944 11.054 3.944 2.889 0 5.487-.568 7.792-1.704 2.337-1.169 4.301-2.727 5.892-4.675 1.623-1.948 2.857-4.188 3.701-6.72a23.96 23.96 0 0 0 1.315-7.889c0-2.143-.341-4.155-1.023-6.038-.649-1.883-1.607-3.507-2.873-4.87-1.234-1.396-2.76-2.484-4.578-3.263-1.785-.812-3.798-1.217-6.038-1.217-2.954 0-5.616.584-7.986 1.753-2.37 1.136-4.383 2.678-6.039 4.626-1.623 1.948-2.873 4.204-3.749 6.769-.877 2.532-1.315 5.21-1.315 8.035zM237.289 73.978 242.986 47h7.402c1.916 0 3.49.276 4.724.828 1.266.552 2.256 1.282 2.97 2.192.715.909 1.202 1.964 1.461 3.165a15.56 15.56 0 0 1 .439 3.7c0 2.111-.309 4.189-.926 6.234-.584 2.045-1.493 3.88-2.727 5.503-1.201 1.59-2.727 2.89-4.577 3.896-1.818.974-3.961 1.46-6.428 1.46h-8.035zm1.996-30.873-7.353 34.77h13.343c2.889 0 5.519-.504 7.889-1.51 2.37-1.007 4.399-2.435 6.087-4.286 1.688-1.883 3.003-4.139 3.945-6.768.941-2.663 1.412-5.633 1.412-8.912 0-4.123-1.12-7.37-3.36-9.74-2.208-2.37-5.471-3.554-9.788-3.554h-12.175zM275.326 63.898l-2.97 13.976h4.528l3.02-13.976 16.849-20.793h-5.357l-13.197 16.849-7.109-16.85h-4.919l9.155 20.794zM177.365 138.451l3.993-8.692h-1.193L177 137.1h-.024l-.487-7.341h-1.315l-3.336 7.317h-.024l-.305-7.317h-1.144l.548 8.692h1.242l3.433-7.499h.024l.548 7.499h1.205zM183.547 129.759l-1.826 8.692h1.156l1.827-8.692h-1.157zM193.491 130.733l.219-.974h-7.012l-.207.974h2.921l-1.631 7.718h1.157l1.631-7.718h2.922zM195.636 129.759l-1.826 8.692h1.157l.84-3.981h4.553l-.84 3.981h1.156l1.826-8.692h-1.156l-.779 3.737h-4.553l.791-3.737h-1.169zM209.771 129.759l-1.839 8.692h6.051l.219-.974h-4.894l.633-3.007h4.517l.194-.974h-4.504l.584-2.763h4.833l.195-.974h-5.989zM222.582 132.328h1.156c.017-.487-.06-.905-.231-1.254a2.208 2.208 0 0 0-.682-.853 2.877 2.877 0 0 0-1.022-.499 4.273 4.273 0 0 0-1.218-.17c-.389 0-.775.053-1.156.158-.374.106-.71.264-1.011.475a2.593 2.593 0 0 0-.718.791c-.187.309-.28.674-.28 1.096 0 .325.053.609.158.852.106.235.248.442.426.621.179.17.386.317.621.438.236.114.483.207.743.28l1.181.317c.211.057.41.122.596.195.187.073.349.166.487.28.146.105.26.239.341.401.081.155.122.341.122.56 0 .293-.065.544-.195.755a1.585 1.585 0 0 1-.487.524c-.203.13-.438.227-.706.292-.26.065-.523.097-.791.097-.349 0-.67-.032-.962-.097a2.034 2.034 0 0 1-.755-.353 1.522 1.522 0 0 1-.462-.645c-.106-.268-.151-.597-.134-.987h-1.157c-.041.536.016.999.17 1.388.163.382.394.694.694.938.309.243.682.422 1.12.535.439.122.918.183 1.437.183.39 0 .783-.053 1.181-.158a3.722 3.722 0 0 0 1.096-.475 2.71 2.71 0 0 0 .791-.816c.211-.332.316-.726.316-1.181 0-.389-.06-.718-.182-.986a1.777 1.777 0 0 0-.463-.657 2.284 2.284 0 0 0-.669-.426 5.212 5.212 0 0 0-.78-.28l-1.168-.317a5.665 5.665 0 0 1-.56-.195 1.899 1.899 0 0 1-.451-.267 1.384 1.384 0 0 1-.292-.39 1.27 1.27 0 0 1-.109-.548c0-.26.064-.479.194-.657.13-.179.292-.325.487-.439.203-.113.422-.194.658-.243a2.84 2.84 0 0 1 .669-.085c.301 0 .577.028.828.085.252.057.463.158.633.304.179.138.313.325.402.56.097.228.142.512.134.853zM224.888 137.489l-.207.962h6.891l.207-.974h-5.552l6.574-6.732.207-.986h-6.342l-.244.974h4.979l-6.513 6.756zM236.64 134.957l-.742 3.494h1.132l.755-3.494 4.212-5.198h-1.339l-3.299 4.212-1.778-4.212h-1.229l2.288 5.198zM243.876 129.759l-1.826 8.692h5.758l.207-.974h-4.59l1.607-7.718h-1.156zM251.602 129.759l-1.814 8.692h1.157l.828-3.981h4.017l.207-.974h-4.017l.572-2.763h4.565l.207-.974h-5.722zM259.579 129.759l-1.826 8.692h1.157l1.826-8.692h-1.157zM263.716 129.759l-1.838 8.692h6.05l.219-.974h-4.894l.633-3.007h4.517l.195-.974h-4.505l.585-2.763h4.833l.195-.974h-5.99zM282.302 130.733l.219-.974h-7.013l-.206.974h2.921l-1.631 7.718h1.157l1.631-7.718h2.922zM285.984 129.759l-5.223 8.692h1.278l1.522-2.617h3.664l.402 2.617h1.193l-1.57-8.692h-1.266zm-1.9 5.101 2.326-4.079h.024l.645 4.079h-2.995zM292.701 134.957l-.743 3.494h1.133l.754-3.494 4.213-5.198h-1.34l-3.299 4.212-1.777-4.212h-1.23l2.289 5.198zM299.936 129.759l-1.826 8.692h5.759l.207-.974h-4.59l1.607-7.718h-1.157zM307.383 134.848c0-.528.073-1.047.219-1.559a4.44 4.44 0 0 1 .682-1.388c.3-.405.674-.734 1.12-.986.454-.259.986-.389 1.595-.389.406 0 .759.077 1.059.231.308.146.568.349.779.609.211.251.369.552.475.901.105.349.158.726.158 1.132 0 .519-.077 1.035-.231 1.546-.146.511-.369.97-.67 1.376a3.451 3.451 0 0 1-1.095.986c-.439.251-.946.377-1.522.377-.438 0-.82-.069-1.145-.207a2.181 2.181 0 0 1-.791-.572 2.52 2.52 0 0 1-.475-.901 4 4 0 0 1-.158-1.156zm-1.157 0c0 1.209.321 2.146.962 2.812.65.657 1.571.986 2.764.986.722 0 1.371-.142 1.948-.426a4.442 4.442 0 0 0 1.473-1.169 5.127 5.127 0 0 0 .925-1.68c.219-.633.329-1.29.329-1.972a4.39 4.39 0 0 0-.256-1.51 3.394 3.394 0 0 0-.718-1.217 3.174 3.174 0 0 0-1.145-.816 3.603 3.603 0 0 0-1.509-.304c-.739 0-1.404.146-1.997.438a4.524 4.524 0 0 0-1.509 1.157 5.28 5.28 0 0 0-.938 1.692 6.103 6.103 0 0 0-.329 2.009zM317.899 129.759l-1.838 8.692h1.156l.779-3.713h3.032c.13.008.26.037.389.085.13.049.24.138.329.268.089.13.146.317.171.56.032.236.016.548-.049.938-.089.446-.13.827-.122 1.144.008.316.041.556.098.718h1.205a1.373 1.373 0 0 1-.158-.523 2.95 2.95 0 0 1 0-.548 6.16 6.16 0 0 1 .073-.572c.032-.195.056-.39.073-.585a2.79 2.79 0 0 0 0-.633 1.67 1.67 0 0 0-.134-.548 1.162 1.162 0 0 0-.293-.438 1.08 1.08 0 0 0-.462-.268v-.024a2.13 2.13 0 0 0 .791-.268c.244-.138.451-.312.621-.523a2.54 2.54 0 0 0 .402-.706 2.45 2.45 0 0 0 .146-.84c0-.431-.081-.788-.244-1.072a1.829 1.829 0 0 0-.633-.682 2.588 2.588 0 0 0-.925-.353 5.046 5.046 0 0 0-1.059-.109h-3.348zm.304 4.005.646-3.031h2.398c.219 0 .43.02.633.061.203.032.381.097.536.194.162.098.292.232.389.402.098.171.146.39.146.658 0 .154-.028.332-.085.535-.049.195-.15.382-.304.56-.154.171-.374.317-.658.439-.276.121-.641.182-1.095.182h-2.606zM170.508 84.611v34.77h7.158V94.984h.097l8.522 24.397h5.893L200.7 94.74h.097v24.641h7.159v-34.77h-10.762l-7.695 23.91h-.097l-8.132-23.91h-10.762zM219.849 102.142c0-1.526.162-3.003.487-4.431.357-1.429.909-2.695 1.655-3.799a7.992 7.992 0 0 1 2.922-2.678c1.201-.682 2.662-1.023 4.383-1.023s3.182.341 4.383 1.023a7.992 7.992 0 0 1 2.922 2.678c.746 1.104 1.282 2.37 1.607 3.798.357 1.429.535 2.906.535 4.432 0 1.461-.178 2.889-.535 4.285a11.171 11.171 0 0 1-1.607 3.701 8.593 8.593 0 0 1-2.922 2.679c-1.201.649-2.662.974-4.383.974s-3.182-.325-4.383-.974a8.593 8.593 0 0 1-2.922-2.679 11.962 11.962 0 0 1-1.655-3.701 18.833 18.833 0 0 1-.487-4.285zm-7.646 0c0 2.532.39 4.902 1.169 7.11.779 2.175 1.899 4.074 3.36 5.697 1.461 1.624 3.247 2.906 5.357 3.847 2.142.909 4.545 1.364 7.207 1.364 2.695 0 5.097-.455 7.207-1.364 2.11-.941 3.896-2.223 5.357-3.847 1.461-1.623 2.581-3.522 3.36-5.697.779-2.208 1.169-4.578 1.169-7.11 0-2.597-.39-5-1.169-7.207-.779-2.24-1.899-4.188-3.36-5.844-1.461-1.656-3.247-2.954-5.357-3.896-2.11-.941-4.512-1.412-7.207-1.412-2.662 0-5.065.47-7.207 1.412-2.11.942-3.896 2.24-5.357 3.896-1.461 1.656-2.581 3.604-3.36 5.844-.779 2.207-1.169 4.61-1.169 7.207zM250.641 84.611v34.77h7.158V96.103h.098l14.463 23.278h7.645v-34.77h-7.158v23.326h-.098l-14.511-23.326h-7.597zM285.762 84.611v34.77h26.394v-6.428h-18.749v-8.522h16.849V98.49h-16.849v-7.451h18.359v-6.428h-26.004zM325.374 105.843v13.538h7.645v-13.343l12.905-21.427h-8.522l-8.084 13.733-8.132-13.733h-8.571l12.759 21.232zM283.814 29.637h6.731v6.731h-6.731zM292.788 71.144h6.731v6.731h-6.731zM343.269 112.65H350v6.731h-6.731z"/>
    </g>
    <defs>
        <clipPath id="a">
            <path fill="#fff" transform="translate(0 .47)" d="M0 0h350v145.114H0z"/>
        </clipPath>
    </defs>
</svg>
